<svg width="280" height="280" viewBox="0 0 74.083 74.083" xmlns="http://www.w3.org/2000/svg"><defs><path id="a" d="M-27.101-11.142h118.59v78.173h-118.59z"/><path id="b" d="M-27.101-11.142h118.59v78.173h-118.59z"/></defs><path style="opacity:1;fill:red;fill-opacity:.06649821;stroke:#ff0004;stroke-width:.800933;stroke-miterlimit:4;stroke-dasharray:none;stroke-opacity:1" d="M7.941 7.941h58.201v58.201H7.941z"/><path d="M21.993 66.543a4.97 4.97 0 0 1-3.018-1.037c-1.686-1.278-2.457-3.39-2-5.507l3.108-14.533a.271.271 0 0 0-.084-.253L9.291 35.359c-1.56-1.432-2.132-3.611-1.494-5.68.645-2.068 2.337-3.475 4.409-3.685l14.225-1.408c.097-.006.169-.068.21-.16l5.68-13.657c.831-1.994 2.638-3.228 4.728-3.228 2.084 0 3.897 1.24 4.722 3.235l5.685 13.656c.536 1.296-.036 2.797-1.277 3.358-1.24.562-2.686-.037-3.222-1.327l-5.685-13.662c-.024-.062-.066-.155-.23-.155-.162 0-.204.1-.228.16l-5.68 13.663c-.746 1.797-2.372 3.025-4.24 3.21l-14.218 1.402c-.06.006-.169.018-.217.179-.048.16.03.235.072.278l10.714 9.853c1.403 1.29 2.024 3.278 1.62 5.186L21.752 61.11c-.012.062-.037.167.096.265.132.105.217.05.271.013l12.304-7.575a4.99 4.99 0 0 1 5.24 0l12.304 7.575c.048.03.138.086.27-.013.133-.099.11-.203.097-.265l-3.107-14.533c-.41-1.914.21-3.902 1.62-5.192l10.714-9.853c.048-.044.12-.111.072-.278-.054-.167-.15-.173-.217-.18l-6.805-.672c-1.343-.136-2.331-1.377-2.205-2.784.127-1.402 1.301-2.427 2.668-2.303l6.8.673c2.078.203 3.764 1.617 4.408 3.685.645 2.069.073 4.242-1.493 5.68l-10.696 9.86a.268.268 0 0 0-.079.253l3.108 14.526c.458 2.124-.313 4.236-2 5.507-1.692 1.278-3.848 1.383-5.643.278l-12.304-7.569a.234.234 0 0 0-.253 0l-12.304 7.575a5.011 5.011 0 0 1-2.625.76z" style="fill:#37c6bc;fill-opacity:1;stroke-width:.0608542;stroke-miterlimit:4;stroke-dasharray:none"/><text xml:space="preserve" transform="matrix(.26458 0 0 .26458 8.762 4.467)" style="font-style:normal;font-variant:normal;font-weight:700;font-stretch:normal;font-size:16px;line-height:1.25;font-family:FreeSans;-inkscape-font-specification:'FreeSans Bold';word-spacing:0;white-space:pre;shape-inside:url(#a);fill:#00bf1e;fill-opacity:1"><tspan x="-27.102" y="3.659">x0, y0</tspan></text><text xml:space="preserve" transform="matrix(.26458 0 0 .26458 68.33 70.347)" style="font-style:normal;font-variant:normal;font-weight:700;font-stretch:normal;font-size:16px;line-height:1.25;font-family:FreeSans;-inkscape-font-specification:'FreeSans Bold';word-spacing:0;white-space:pre;shape-inside:url(#b);fill:#00bf1e;fill-opacity:1"><tspan x="-27.102" y="3.659">x1, y1</tspan></text></svg>
